<?xml version="1.0" encoding="utf-8"?>
<!-- Generator: Adobe Illustrator 22.1.0, SVG Export Plug-In . SVG Version: 6.00 Build 0)  -->
<svg version="1.0" id="レイヤー_1" xmlns="http://www.w3.org/2000/svg" xmlns:xlink="http://www.w3.org/1999/xlink" x="0px"
	 y="0px" viewBox="0 0 728.5 270.2" style="enable-background:new 0 0 728.5 270.2;" xml:space="preserve">
<style type="text/css">
	.st0{fill:#040000;stroke:#040000;stroke-width:1.1979;stroke-miterlimit:10;}
	.st1{fill:#040000;}
	.st2{fill:#040000;stroke:#040000;stroke-width:1.1053;stroke-miterlimit:10;}
	.st3{fill:#040000;stroke:#040000;stroke-width:1.2517;stroke-miterlimit:10;}
	.st4{fill:#040000;stroke:#040000;stroke-width:1.3239;stroke-miterlimit:10;}
</style>
<path class="st0" d="M365.9,153.8l-8.6,15.3h19.3l-4.4,7.8l-21.9-3.6l13.4-23.7H383l6.1-10.8h-19.2l0.4-7.2l25.7,3.1l-7.9,14.1
	c-1.6,2.8-5.2,5.1-8,5.1h-14.2V153.8z"/>
<path class="st0" d="M399.8,188.6h-19.1l21.8-38.7h24.2l-18.9,33.6C406,186.3,402.5,188.6,399.8,188.6z M404.5,154.1l-17.1,30.4
	h15.1l17.1-30.4H404.5z"/>
<path class="st0" d="M454.4,172.9l27.1-43.7l29.6-3.1l-24.7,36.6c-1.5,2.8-5.1,5-7.9,5.1L454.4,172.9z M483.7,133.3l-6.1,10.8h14.7
	l6.1-10.8H483.7z M475.2,148.3l-8.6,15.3h14.7l8.6-15.3H475.2z"/>
<path class="st1" d="M266.6,58.7l1.7,7.1l-8.9,20.6l12.2-15l5-0.7l1,14l8.7-21.6l7.4-8.4l-16.2,45.1l-5.2,5.8V75.8L255,103.2l-7.7,6
	L266.6,58.7z"/>
<path class="st2" d="M294.1,110.1l-19.2,9.5l20.8-35.5l25.4-5.4l-19.5,26.7C300.1,108,296.7,110.1,294.1,110.1z M297.3,88l-10.6,18
	h10.5l10.6-18H297.3z"/>
<path class="st2" d="M316.7,101.1l15.3-26h13.7l-2.3,3.9h-9.5l-13,22.2h-4.2V101.1z"/>
<path class="st2" d="M357.5,94.1l-18.3,6.7l20.4-32.7h13.6l5.2-8.9l7.3-4l-20.8,34.2C363.5,92,360.1,94.1,357.5,94.1z M361.5,71.9
	l-10.8,18.4h9.5L371,71.9H361.5z"/>
<path class="st3" d="M388.5,114.3l-21.9-4.8l23.7-40.4l26.9-3.6l-4.8,8.2h-19.8L374.2,105H394L388.5,114.3z"/>
<path class="st2" d="M418.9,113.4c-1.5,2.5-4.7,4.6-7.3,4.7h-13.3l9.9-16.9h13.5l3.1-5.2h-13l2.3-3.9h17.2L418.9,113.4z M410.1,105
	l-5.5,9.3h9.5l5.5-9.3H410.1z"/>
<path class="st2" d="M461.7,110.6l-0.4-6.5L474.2,82h-8.3l-12.5,21.3h-3.9L462,82h-8.1L441,104.1l-10.2,4.6l21.5-30.6h23.5
	c2.5,0,3.5,2.1,1.9,4.7L461.7,110.6z"/>
<path class="st2" d="M483.4,114h-8.9l-3.8,6.5l-6.6,4L485.5,88h17.9l-12.5,21.3C489.3,112,486,114,483.4,114z M487.4,91.9
	l-10.8,18.4h9.5l10.8-18.4H487.4z"/>
<path class="st4" d="M250.8,119.6l-2.8,4.8h-9.8l-24.3,41.4l-7.7,4.3l26.8-45.7h-9.8l2.8-4.8H250.8z"/>
<path class="st2" d="M232.1,181.6h-13.6l15.3-26h18.3l-12.6,21.3C238,179.5,234.7,181.6,232.1,181.6z M235.3,159.5l-10.6,18h10.5
	l10.6-18H235.3z"/>
<path class="st2" d="M276.1,158.4l-2.2,15.2h-4.7l1.9-13h-4.5l-10,19.5l-9.6,5l28.4-46.4h4.2l-10.6,18h4.4l16.7-16.8l9.9-2
	L276.1,158.4z"/>
<path class="st2" d="M282.6,179.3h13.5l4-6.8h-13.6l14.6-24.9h4.1l-12.5,21.3h9.5l12.5-21.3h4.3l-18.1,30.8
	c-1.5,2.6-4.8,4.7-7.4,4.7h-13.1L282.6,179.3z"/>
<path class="st2" d="M333.2,162.6l-17.6,6.7l19.2-32.7l24.8-5.4l-19,26.7C339.2,160.5,335.8,162.6,333.2,162.6z M336.5,140.5
	l-10.6,18h10.5l10.6-18H336.5z"/>
<g>
	<path d="M461.4,132.2l-29.8,48.7l-7-2.3l28.3-45.5L461.4,132.2z"/>
</g>
</svg>
